{
	"asset":{
		"generator":"Khronos glTF Blender I/O v4.2.57",
		"version":"2.0"
	},
	"extensionsUsed":[
		"KHR_texture_transform"
	],
	"extensionsRequired":[
		"KHR_texture_transform"
	],
	"scene":0,
	"scenes":[
		{
			"name":"Scene",
			"nodes":[
				1
			]
		}
	],
	"nodes":[
		{
			"mesh":0,
			"name":"Diamonds",
			"rotation":[
				0.7109392285346985,
				-0.21670538187026978,
				0.27676311135292053,
				0.6091029644012451
			],
			"translation":[
				-0.5629509687423706,
				-0.04251533001661301,
				0.5328333377838135
			]
		},
		{
			"children":[
				0
			],
			"mesh":1,
			"name":"Crown_Base",
			"rotation":[
				0.02416715770959854,
				0.13705874979496002,
				0.17195825278759003,
				0.9752237200737
			],
			"translation":[
				0,
				-0.10000000149011612,
				0
			]
		}
	],
	"materials":[
		{
			"doubleSided":true,
			"name":"Gold",
			"pbrMetallicRoughness":{
				"baseColorFactor":[
					0.800000011920929,
					0.35920006036758423,
					0.040000010281801224,
					1
				],
				"roughnessFactor":0.15000000596046448
			}
		},
		{
			"doubleSided":true,
			"name":"Base_Metal_Baked",
			"normalTexture":{
				"extensions":{
					"KHR_texture_transform":{
						"offset":[
							0,
							-1
						],
						"scale":[
							2,
							2
						]
					}
				},
				"index":0
			},
			"pbrMetallicRoughness":{
				"baseColorTexture":{
					"index":1
				},
				"roughnessFactor":0.15000000596046448
			}
		}
	],
	"meshes":[
		{
			"name":"Mesh.006",
			"primitives":[
				{
					"attributes":{
						"POSITION":0,
						"NORMAL":1,
						"TEXCOORD_0":2
					},
					"indices":3,
					"material":0
				}
			]
		},
		{
			"name":"B\u00e9zierCurve.007",
			"primitives":[
				{
					"attributes":{
						"POSITION":4,
						"NORMAL":5,
						"TEXCOORD_0":6
					},
					"indices":7,
					"material":1
				}
			]
		}
	],
	"textures":[
		{
			"sampler":0,
			"source":0
		},
		{
			"sampler":0,
			"source":1
		}
	],
	"images":[
		{
			"mimeType":"image/png",
			"name":"Norm_05_1024px_01",
			"uri":"Norm_05_1024px_01.png"
		},
		{
			"mimeType":"image/png",
			"name":"Crown_Color_1024px_01",
			"uri":"Crown_Color_1024px_01.png"
		}
	],
	"accessors":[
		{
			"bufferView":0,
			"componentType":5126,
			"count":1398,
			"max":[
				0.9137779474258423,
				0.04659155011177063,
				0.2830999493598938
			],
			"min":[
				-0.10595019906759262,
				-0.8395751714706421,
				-0.20617151260375977
			],
			"type":"VEC3"
		},
		{
			"bufferView":1,
			"componentType":5126,
			"count":1398,
			"type":"VEC3"
		},
		{
			"bufferView":2,
			"componentType":5126,
			"count":1398,
			"type":"VEC2"
		},
		{
			"bufferView":3,
			"componentType":5123,
			"count":6678,
			"type":"SCALAR"
		},
		{
			"bufferView":4,
			"componentType":5126,
			"count":18030,
			"max":[
				0.8007485866546631,
				0.5045128464698792,
				0.9194521307945251
			],
			"min":[
				-0.800784170627594,
				-0.290433794260025,
				-0.9194521307945251
			],
			"type":"VEC3"
		},
		{
			"bufferView":5,
			"componentType":5126,
			"count":18030,
			"type":"VEC3"
		},
		{
			"bufferView":6,
			"componentType":5126,
			"count":18030,
			"type":"VEC2"
		},
		{
			"bufferView":7,
			"componentType":5123,
			"count":73584,
			"type":"SCALAR"
		}
	],
	"bufferViews":[
		{
			"buffer":0,
			"byteLength":16776,
			"byteOffset":0,
			"target":34962
		},
		{
			"buffer":0,
			"byteLength":16776,
			"byteOffset":16776,
			"target":34962
		},
		{
			"buffer":0,
			"byteLength":11184,
			"byteOffset":33552,
			"target":34962
		},
		{
			"buffer":0,
			"byteLength":13356,
			"byteOffset":44736,
			"target":34963
		},
		{
			"buffer":0,
			"byteLength":216360,
			"byteOffset":58092,
			"target":34962
		},
		{
			"buffer":0,
			"byteLength":216360,
			"byteOffset":274452,
			"target":34962
		},
		{
			"buffer":0,
			"byteLength":144240,
			"byteOffset":490812,
			"target":34962
		},
		{
			"buffer":0,
			"byteLength":147168,
			"byteOffset":635052,
			"target":34963
		}
	],
	"samplers":[
		{
			"magFilter":9729,
			"minFilter":9987
		}
	],
	"buffers":[
		{
			"byteLength":782220,
			"uri":"crown.bin"
		}
	]
}
