{
	"asset":{
		"generator":"Khronos glTF Blender I/O v4.2.57",
		"version":"2.0"
	},
	"scene":0,
	"scenes":[
		{
			"name":"Scene",
			"nodes":[
				6,
				7
			]
		}
	],
	"nodes":[
		{
			"mesh":0,
			"name":"Crown_Line_Bottom",
			"translation":[
				-1.7806654796004295e-05,
				-0.14023332297801971,
				0
			]
		},
		{
			"mesh":1,
			"name":"Crown_Line_Top",
			"translation":[
				-1.7806654796004295e-05,
				-0.14023332297801971,
				0
			]
		},
		{
			"mesh":2,
			"name":"Diamond_Center",
			"rotation":[
				0.7786124348640442,
				-0.0015961902681738138,
				-0.0019779799040406942,
				0.6274999976158142
			],
			"translation":[
				-2.2601336240768433e-05,
				0.0362221822142601,
				0.803349494934082
			]
		},
		{
			"mesh":3,
			"name":"Diamond_Left",
			"rotation":[
				0.7109392285346985,
				-0.21670538187026978,
				0.27676311135292053,
				0.6091029644012451
			],
			"translation":[
				-0.5629509687423706,
				-0.04251533001661301,
				0.5328333377838135
			]
		},
		{
			"mesh":4,
			"name":"Diamond_Right",
			"rotation":[
				0.7109391689300537,
				0.21670538187026978,
				-0.27676311135292053,
				0.6091030240058899
			],
			"translation":[
				0.5629153251647949,
				-0.0425153449177742,
				0.5328333377838135
			]
		},
		{
			"mesh":5,
			"name":"Spheres",
			"translation":[
				-1.7806654796004295e-05,
				-0.14023332297801971,
				0
			]
		},
		{
			"children":[
				0,
				1,
				2,
				3,
				4,
				5
			],
			"mesh":6,
			"name":"Crown_Base",
			"rotation":[
				0.02416715770959854,
				0.13705874979496002,
				0.17195825278759003,
				0.9752237200737
			],
			"translation":[
				0,
				-0.10000000149011612,
				0
			]
		},
		{
			"name":"Gradient_Locator",
			"rotation":[
				0.3223996162414551,
				0.561683714389801,
				0.7087154388427734,
				0.2798077166080475
			],
			"scale":[
				1.1793251037597656,
				1.1793251037597656,
				1.1793251037597656
			],
			"translation":[
				-0.9179307818412781,
				-0.033893004059791565,
				0.08688006550073624
			]
		}
	],
	"materials":[
		{
			"doubleSided":true,
			"name":"Base_Metal",
			"pbrMetallicRoughness":{
				"baseColorFactor":[
					0.040008798241615295,
					0.041009027510881424,
					0.05001099780201912,
					1
				],
				"roughnessFactor":0.15000000596046448
			}
		},
		{
			"doubleSided":true,
			"name":"Gold",
			"pbrMetallicRoughness":{
				"baseColorFactor":[
					0.800000011920929,
					0.35920006036758423,
					0.040000010281801224,
					1
				],
				"roughnessFactor":0.15000000596046448
			}
		}
	],
	"meshes":[
		{
			"name":"Start_Segment.004_Curve.001",
			"primitives":[
				{
					"attributes":{
						"POSITION":0,
						"NORMAL":1,
						"TEXCOORD_0":2
					},
					"indices":3,
					"material":0
				}
			]
		},
		{
			"name":"Crown_Base_Curve.001",
			"primitives":[
				{
					"attributes":{
						"POSITION":4,
						"NORMAL":5,
						"TEXCOORD_0":6
					},
					"indices":7,
					"material":0
				}
			]
		},
		{
			"name":"Mesh.003",
			"primitives":[
				{
					"attributes":{
						"POSITION":8,
						"NORMAL":9,
						"TEXCOORD_0":10
					},
					"indices":11,
					"material":1
				},
				{
					"attributes":{
						"POSITION":12,
						"NORMAL":13,
						"TEXCOORD_0":14
					},
					"indices":15,
					"material":0
				}
			]
		},
		{
			"name":"Mesh.006",
			"primitives":[
				{
					"attributes":{
						"POSITION":16,
						"NORMAL":17,
						"TEXCOORD_0":18
					},
					"indices":19,
					"material":1
				},
				{
					"attributes":{
						"POSITION":20,
						"NORMAL":21,
						"TEXCOORD_0":22
					},
					"indices":23,
					"material":0
				}
			]
		},
		{
			"name":"Mesh.005",
			"primitives":[
				{
					"attributes":{
						"POSITION":24,
						"NORMAL":25,
						"TEXCOORD_0":26
					},
					"indices":27,
					"material":1
				},
				{
					"attributes":{
						"POSITION":28,
						"NORMAL":29,
						"TEXCOORD_0":30
					},
					"indices":31,
					"material":0
				}
			]
		},
		{
			"name":"Icosphere.001",
			"primitives":[
				{
					"attributes":{
						"POSITION":32,
						"NORMAL":33,
						"TEXCOORD_0":34
					},
					"indices":35,
					"material":0
				}
			]
		},
		{
			"name":"B\u00e9zierCurve.007",
			"primitives":[
				{
					"attributes":{
						"POSITION":36,
						"NORMAL":37,
						"TEXCOORD_0":38
					},
					"indices":39,
					"material":0
				}
			]
		}
	],
	"accessors":[
		{
			"bufferView":0,
			"componentType":5126,
			"count":3689,
			"max":[
				0.7471952438354492,
				-0.0934949442744255,
				0.7522961497306824
			],
			"min":[
				-0.7471953630447388,
				-0.11431214213371277,
				-0.7522962093353271
			],
			"type":"VEC3"
		},
		{
			"bufferView":1,
			"componentType":5126,
			"count":3689,
			"type":"VEC3"
		},
		{
			"bufferView":2,
			"componentType":5126,
			"count":3689,
			"type":"VEC2"
		},
		{
			"bufferView":3,
			"componentType":5123,
			"count":20736,
			"type":"SCALAR"
		},
		{
			"bufferView":4,
			"componentType":5126,
			"count":2821,
			"max":[
				0.7917428612709045,
				0.5695292353630066,
				0.8923408389091492
			],
			"min":[
				-0.7917429208755493,
				0.20797526836395264,
				-0.8923410773277283
			],
			"type":"VEC3"
		},
		{
			"bufferView":5,
			"componentType":5126,
			"count":2821,
			"type":"VEC3"
		},
		{
			"bufferView":6,
			"componentType":5126,
			"count":2821,
			"type":"VEC2"
		},
		{
			"bufferView":7,
			"componentType":5123,
			"count":15552,
			"type":"SCALAR"
		},
		{
			"bufferView":8,
			"componentType":5126,
			"count":466,
			"max":[
				0.09567512571811676,
				0.04142841324210167,
				0.17288906872272491
			],
			"min":[
				-0.09567522257566452,
				0.0037495114374905825,
				-0.17146511375904083
			],
			"type":"VEC3"
		},
		{
			"bufferView":9,
			"componentType":5126,
			"count":466,
			"type":"VEC3"
		},
		{
			"bufferView":10,
			"componentType":5126,
			"count":466,
			"type":"VEC2"
		},
		{
			"bufferView":11,
			"componentType":5123,
			"count":2226,
			"type":"SCALAR"
		},
		{
			"bufferView":12,
			"componentType":5126,
			"count":117,
			"max":[
				0.11017513275146484,
				0.010500575415790081,
				0.1873890608549118
			],
			"min":[
				-0.11017515510320663,
				-0.01806255429983139,
				-0.18596512079238892
			],
			"type":"VEC3"
		},
		{
			"bufferView":13,
			"componentType":5126,
			"count":117,
			"type":"VEC3"
		},
		{
			"bufferView":14,
			"componentType":5126,
			"count":117,
			"type":"VEC2"
		},
		{
			"bufferView":15,
			"componentType":5123,
			"count":576,
			"type":"SCALAR"
		},
		{
			"bufferView":16,
			"componentType":5126,
			"count":466,
			"max":[
				0.10595030337572098,
				0.04659155011177063,
				0.13104677200317383
			],
			"min":[
				-0.10595019906759262,
				0.005299437791109085,
				-0.13104675710201263
			],
			"type":"VEC3"
		},
		{
			"bufferView":17,
			"componentType":5126,
			"count":466,
			"type":"VEC3"
		},
		{
			"bufferView":18,
			"componentType":5126,
			"count":466,
			"type":"VEC2"
		},
		{
			"bufferView":19,
			"componentType":5123,
			"count":2226,
			"type":"SCALAR"
		},
		{
			"bufferView":20,
			"componentType":5126,
			"count":117,
			"max":[
				0.12045026570558548,
				0.01660054922103882,
				0.1455467790365219
			],
			"min":[
				-0.12045025080442429,
				-0.02000061422586441,
				-0.14554674923419952
			],
			"type":"VEC3"
		},
		{
			"bufferView":21,
			"componentType":5126,
			"count":117,
			"type":"VEC3"
		},
		{
			"bufferView":22,
			"componentType":5126,
			"count":117,
			"type":"VEC2"
		},
		{
			"bufferView":23,
			"componentType":5123,
			"count":576,
			"type":"SCALAR"
		},
		{
			"bufferView":24,
			"componentType":5126,
			"count":466,
			"max":[
				0.10595019906759262,
				0.04659155011177063,
				0.13104677200317383
			],
			"min":[
				-0.10595030337572098,
				0.005299437791109085,
				-0.13104675710201263
			],
			"type":"VEC3"
		},
		{
			"bufferView":25,
			"componentType":5126,
			"count":466,
			"type":"VEC3"
		},
		{
			"bufferView":26,
			"componentType":5126,
			"count":466,
			"type":"VEC2"
		},
		{
			"bufferView":27,
			"componentType":5123,
			"count":2226,
			"type":"SCALAR"
		},
		{
			"bufferView":28,
			"componentType":5126,
			"count":117,
			"max":[
				0.12045025080442429,
				0.01660054922103882,
				0.1455467790365219
			],
			"min":[
				-0.12045026570558548,
				-0.02000061422586441,
				-0.14554674923419952
			],
			"type":"VEC3"
		},
		{
			"bufferView":29,
			"componentType":5126,
			"count":117,
			"type":"VEC3"
		},
		{
			"bufferView":30,
			"componentType":5126,
			"count":117,
			"type":"VEC2"
		},
		{
			"bufferView":31,
			"componentType":5123,
			"count":576,
			"type":"SCALAR"
		},
		{
			"bufferView":32,
			"componentType":5126,
			"count":1230,
			"max":[
				0.8007662892341614,
				0.6447461247444153,
				0.9194520115852356
			],
			"min":[
				-0.8007662296295166,
				0.5747461915016174,
				-0.9194520115852356
			],
			"type":"VEC3"
		},
		{
			"bufferView":33,
			"componentType":5126,
			"count":1230,
			"type":"VEC3"
		},
		{
			"bufferView":34,
			"componentType":5126,
			"count":1230,
			"type":"VEC2"
		},
		{
			"bufferView":35,
			"componentType":5123,
			"count":5760,
			"type":"SCALAR"
		},
		{
			"bufferView":36,
			"componentType":5126,
			"count":3456,
			"max":[
				0.7890207767486572,
				0.4357985258102417,
				0.8902362585067749
			],
			"min":[
				-0.7890565395355225,
				-0.290433794260025,
				-0.8902364373207092
			],
			"type":"VEC3"
		},
		{
			"bufferView":37,
			"componentType":5126,
			"count":3456,
			"type":"VEC3"
		},
		{
			"bufferView":38,
			"componentType":5126,
			"count":3456,
			"type":"VEC2"
		},
		{
			"bufferView":39,
			"componentType":5123,
			"count":20736,
			"type":"SCALAR"
		}
	],
	"bufferViews":[
		{
			"buffer":0,
			"byteLength":44268,
			"byteOffset":0,
			"target":34962
		},
		{
			"buffer":0,
			"byteLength":44268,
			"byteOffset":44268,
			"target":34962
		},
		{
			"buffer":0,
			"byteLength":29512,
			"byteOffset":88536,
			"target":34962
		},
		{
			"buffer":0,
			"byteLength":41472,
			"byteOffset":118048,
			"target":34963
		},
		{
			"buffer":0,
			"byteLength":33852,
			"byteOffset":159520,
			"target":34962
		},
		{
			"buffer":0,
			"byteLength":33852,
			"byteOffset":193372,
			"target":34962
		},
		{
			"buffer":0,
			"byteLength":22568,
			"byteOffset":227224,
			"target":34962
		},
		{
			"buffer":0,
			"byteLength":31104,
			"byteOffset":249792,
			"target":34963
		},
		{
			"buffer":0,
			"byteLength":5592,
			"byteOffset":280896,
			"target":34962
		},
		{
			"buffer":0,
			"byteLength":5592,
			"byteOffset":286488,
			"target":34962
		},
		{
			"buffer":0,
			"byteLength":3728,
			"byteOffset":292080,
			"target":34962
		},
		{
			"buffer":0,
			"byteLength":4452,
			"byteOffset":295808,
			"target":34963
		},
		{
			"buffer":0,
			"byteLength":1404,
			"byteOffset":300260,
			"target":34962
		},
		{
			"buffer":0,
			"byteLength":1404,
			"byteOffset":301664,
			"target":34962
		},
		{
			"buffer":0,
			"byteLength":936,
			"byteOffset":303068,
			"target":34962
		},
		{
			"buffer":0,
			"byteLength":1152,
			"byteOffset":304004,
			"target":34963
		},
		{
			"buffer":0,
			"byteLength":5592,
			"byteOffset":305156,
			"target":34962
		},
		{
			"buffer":0,
			"byteLength":5592,
			"byteOffset":310748,
			"target":34962
		},
		{
			"buffer":0,
			"byteLength":3728,
			"byteOffset":316340,
			"target":34962
		},
		{
			"buffer":0,
			"byteLength":4452,
			"byteOffset":320068,
			"target":34963
		},
		{
			"buffer":0,
			"byteLength":1404,
			"byteOffset":324520,
			"target":34962
		},
		{
			"buffer":0,
			"byteLength":1404,
			"byteOffset":325924,
			"target":34962
		},
		{
			"buffer":0,
			"byteLength":936,
			"byteOffset":327328,
			"target":34962
		},
		{
			"buffer":0,
			"byteLength":1152,
			"byteOffset":328264,
			"target":34963
		},
		{
			"buffer":0,
			"byteLength":5592,
			"byteOffset":329416,
			"target":34962
		},
		{
			"buffer":0,
			"byteLength":5592,
			"byteOffset":335008,
			"target":34962
		},
		{
			"buffer":0,
			"byteLength":3728,
			"byteOffset":340600,
			"target":34962
		},
		{
			"buffer":0,
			"byteLength":4452,
			"byteOffset":344328,
			"target":34963
		},
		{
			"buffer":0,
			"byteLength":1404,
			"byteOffset":348780,
			"target":34962
		},
		{
			"buffer":0,
			"byteLength":1404,
			"byteOffset":350184,
			"target":34962
		},
		{
			"buffer":0,
			"byteLength":936,
			"byteOffset":351588,
			"target":34962
		},
		{
			"buffer":0,
			"byteLength":1152,
			"byteOffset":352524,
			"target":34963
		},
		{
			"buffer":0,
			"byteLength":14760,
			"byteOffset":353676,
			"target":34962
		},
		{
			"buffer":0,
			"byteLength":14760,
			"byteOffset":368436,
			"target":34962
		},
		{
			"buffer":0,
			"byteLength":9840,
			"byteOffset":383196,
			"target":34962
		},
		{
			"buffer":0,
			"byteLength":11520,
			"byteOffset":393036,
			"target":34963
		},
		{
			"buffer":0,
			"byteLength":41472,
			"byteOffset":404556,
			"target":34962
		},
		{
			"buffer":0,
			"byteLength":41472,
			"byteOffset":446028,
			"target":34962
		},
		{
			"buffer":0,
			"byteLength":27648,
			"byteOffset":487500,
			"target":34962
		},
		{
			"buffer":0,
			"byteLength":41472,
			"byteOffset":515148,
			"target":34963
		}
	],
	"buffers":[
		{
			"byteLength":556620,
			"uri":"crown.bin"
		}
	]
}
